<?xml version="1.0" standalone="no"?>
<!DOCTYPE svg PUBLIC "-//W3C//DTD SVG 20010904//EN"
 "http://www.w3.org/TR/2001/REC-SVG-20010904/DTD/svg10.dtd">
<svg version="1.0" xmlns="http://www.w3.org/2000/svg"
 width="1055.000000pt" height="1055.000000pt" viewBox="0 0 1055.000000 1055.000000"
 preserveAspectRatio="xMidYMid meet">
<metadata>
Created by potrace 1.11, written by Peter Selinger 2001-2013
</metadata>
<g transform="translate(0.000000,1055.000000) scale(0.100000,-0.100000)"
fill="#000000" stroke="none">
<path d="M8575 9978 c-64 -23 -181 -111 -251 -188 -18 -19 -54 -58 -81 -86
-26 -28 -82 -88 -123 -134 -41 -46 -98 -109 -127 -140 -29 -31 -62 -67 -73
-80 -12 -14 -29 -34 -38 -45 -10 -11 -40 -45 -67 -76 -105 -117 -173 -195
-201 -229 -16 -19 -42 -50 -59 -69 -44 -50 -74 -85 -82 -96 -5 -6 -31 -37 -59
-70 -28 -33 -59 -71 -70 -83 -10 -13 -27 -33 -37 -45 -10 -12 -31 -37 -45 -56
-15 -19 -32 -39 -37 -45 -6 -6 -57 -69 -114 -141 -129 -163 -114 -144 -195
-250 -64 -83 -103 -133 -125 -161 -5 -6 -44 -60 -87 -120 -43 -60 -83 -114
-89 -120 -5 -6 -16 -20 -23 -30 -48 -72 -216 -310 -221 -314 -8 -6 -29 -41
-38 -60 -4 -8 -9 -17 -12 -20 -3 -3 -28 -39 -55 -80 -27 -41 -53 -76 -58 -78
-4 -2 -8 -8 -8 -14 0 -6 -11 -26 -25 -44 -14 -18 -25 -37 -25 -42 0 -6 -4 -12
-8 -14 -4 -1 -21 -25 -37 -53 -15 -27 -31 -52 -34 -55 -3 -3 -11 -14 -18 -25
-19 -30 -68 -110 -134 -215 -32 -52 -66 -110 -74 -127 -8 -18 -20 -33 -25 -33
-6 0 -10 -6 -10 -12 -1 -7 -16 -38 -35 -68 -18 -30 -50 -84 -71 -120 -20 -36
-57 -98 -80 -137 -24 -40 -44 -77 -44 -83 0 -5 -4 -10 -9 -10 -5 0 -11 -8 -14
-17 -3 -10 -20 -43 -37 -73 -80 -139 -120 -213 -120 -221 0 -5 -3 -9 -8 -9 -4
0 -18 -21 -30 -47 -13 -27 -30 -59 -38 -73 -42 -74 -144 -262 -144 -266 0 -3
-9 -19 -21 -35 -11 -16 -22 -35 -23 -42 -1 -7 -11 -28 -23 -47 -11 -19 -47
-84 -78 -145 -32 -60 -69 -130 -83 -155 -13 -25 -63 -119 -110 -210 -47 -91
-93 -178 -103 -195 -9 -16 -43 -79 -74 -140 -31 -60 -65 -124 -75 -142 -10
-17 -38 -67 -61 -110 -23 -43 -53 -96 -65 -118 -13 -22 -47 -87 -76 -145 -28
-58 -56 -108 -61 -111 -5 -3 -8 -9 -8 -13 1 -6 -82 -185 -120 -259 -10 -21
-19 -44 -19 -52 0 -8 -5 -15 -12 -15 -6 0 -8 -3 -5 -6 3 -4 1 -16 -5 -28 -7
-11 -13 -23 -13 -26 -2 -5 -26 -60 -65 -145 -13 -27 -23 -56 -23 -62 0 -7 -4
-13 -9 -13 -4 0 -8 -7 -8 -16 0 -8 -9 -34 -19 -57 -38 -84 -49 -115 -43 -121
3 -3 1 -6 -5 -6 -6 0 -14 -15 -17 -32 -10 -52 -18 -57 -107 -79 -100 -24 -179
-51 -274 -94 -67 -31 -218 -118 -241 -139 -7 -6 -24 -20 -40 -31 -35 -24 -130
-111 -158 -144 -12 -14 -28 -32 -36 -40 -26 -28 -110 -156 -110 -168 0 -6 -4
-13 -8 -15 -8 -3 -32 -53 -121 -250 -11 -26 -21 -53 -21 -60 0 -8 -4 -18 -8
-24 -5 -5 -20 -40 -35 -79 -14 -38 -32 -83 -38 -100 -7 -16 -13 -32 -14 -35
-3 -13 -69 -180 -87 -220 -58 -128 -125 -251 -164 -300 -100 -124 -174 -203
-254 -269 -14 -11 -31 -26 -38 -32 -46 -39 -143 -109 -151 -109 -5 0 -11 -3
-13 -7 -7 -16 -261 -173 -279 -173 -5 0 -9 -4 -9 -10 0 -8 101 -44 155 -56 11
-2 31 -6 45 -10 14 -3 39 -8 55 -11 45 -8 60 -11 60 -13 0 -1 16 -4 110 -15
89 -11 317 -21 335 -15 3 1 30 3 60 5 58 3 128 11 170 20 14 3 39 8 55 11 124
22 318 86 450 149 55 26 102 50 105 53 3 4 23 16 45 27 39 20 204 128 246 162
202 164 364 328 508 517 71 92 211 306 211 323 0 7 4 13 8 13 4 0 13 15 21 33
76 192 97 262 104 357 1 14 5 30 8 35 7 13 4 185 -5 249 -7 58 -22 118 -42
169 -20 53 -19 56 32 112 107 117 207 230 250 284 10 13 24 28 29 35 6 6 35
40 65 76 30 36 57 67 60 70 7 6 187 236 220 280 14 18 35 46 48 61 12 15 22
32 22 38 0 6 3 11 8 11 4 0 18 17 32 38 14 20 27 39 30 42 4 3 22 28 41 55 18
28 36 52 39 55 3 3 23 32 45 65 22 33 43 62 48 63 4 2 7 8 7 13 0 8 51 80 70
99 3 3 20 28 39 55 44 64 102 146 112 160 5 5 27 35 48 65 22 30 45 60 51 67
5 7 10 16 10 22 0 5 3 11 8 13 4 2 30 35 57 73 27 39 53 72 57 73 4 2 8 8 8
14 0 6 10 23 23 38 12 15 28 36 35 46 20 30 131 187 145 205 7 8 17 23 22 32
8 13 147 209 235 332 90 126 220 317 220 325 0 4 4 10 8 12 11 4 142 198 142
209 0 5 3 9 8 9 4 0 25 30 47 66 22 36 45 71 50 78 6 6 46 66 90 134 112 173
116 178 212 337 20 33 40 62 45 63 4 2 8 8 8 12 0 5 37 69 81 142 84 136 113
187 147 248 10 19 35 64 55 98 21 35 37 68 37 73 0 5 4 9 8 9 4 0 13 12 19 28
7 15 26 50 42 77 16 28 41 73 55 100 13 28 44 84 67 125 145 262 423 839 616
1280 82 188 104 239 108 250 4 13 75 180 95 225 5 11 32 79 61 150 28 72 56
141 62 155 6 14 11 27 12 30 1 3 5 14 10 25 68 168 107 304 106 370 -1 97 -21
148 -66 169 -38 18 -76 19 -120 4z"/>
</g>
</svg>
